<svg xmlns="http://www.w3.org/2000/svg" viewBox="0 0 261.76 226.69"><path d="M161.096.001l-30.225 52.351L100.647.001H-.005l130.877 226.688L261.749.001z" fill="#41b883"/><path d="M161.096.001l-30.225 52.351L100.647.001H52.346l78.526 136.01L209.398.001z" fill="#34495e"/></svg>
<svg fill="#000000" height="800px" width="800px" version="1.1" id="telegram-h" xmlns="http://www.w3.org/2000/svg" xmlns:xlink="http://www.w3.org/1999/xlink" 
	 viewBox="0 0 455 455" xml:space="preserve">
<g>
	<path style="fill-rule:evenodd;clip-rule:evenodd;" d="M0,0v455h455V0H0z M384.814,100.68l-53.458,257.136
		c-1.259,6.071-8.378,8.822-13.401,5.172l-72.975-52.981c-4.43-3.217-10.471-3.046-14.712,0.412l-40.46,32.981
		c-4.695,3.84-11.771,1.7-13.569-4.083l-28.094-90.351l-72.583-27.089c-7.373-2.762-7.436-13.171-0.084-16.003L373.36,90.959
		C379.675,88.517,386.19,94.049,384.814,100.68z"/>
	<path style="fill-rule:evenodd;clip-rule:evenodd;" d="M313.567,147.179l-141.854,87.367c-5.437,3.355-7.996,9.921-6.242,16.068
		l15.337,53.891c1.091,3.818,6.631,3.428,7.162-0.517l3.986-29.553c0.753-5.564,3.406-10.693,7.522-14.522l117.069-108.822
		C318.739,149.061,316.115,145.614,313.567,147.179z"/>
</g>
</svg>

<svg width="98" height="96" version="1.1" id="github-h" xmlns="http://www.w3.org/2000/svg" xmlns:xlink="http://www.w3.org/1999/xlink"><path fill-rule="evenodd" clip-rule="evenodd" d="M48.854 0C21.839 0 0 22 0 49.217c0 21.756 13.993 40.172 33.405 46.69 2.427.49 3.316-1.059 3.316-2.362 0-1.141-.08-5.052-.08-9.127-13.59 2.934-16.42-5.867-16.42-5.867-2.184-5.704-5.42-7.17-5.42-7.17-4.448-3.015.324-3.015.324-3.015 4.934.326 7.523 5.052 7.523 5.052 4.367 7.496 11.404 5.378 14.235 4.074.404-3.178 1.699-5.378 3.074-6.6-10.839-1.141-22.243-5.378-22.243-24.283 0-5.378 1.94-9.778 5.014-13.2-.485-1.222-2.184-6.275.486-13.038 0 0 4.125-1.304 13.426 5.052a46.97 46.97 0 0 1 12.214-1.63c4.125 0 8.33.571 12.213 1.63 9.302-6.356 13.427-5.052 13.427-5.052 2.67 6.763.97 11.816.485 13.038 3.155 3.422 5.015 7.822 5.015 13.2 0 18.905-11.404 23.06-22.324 24.283 1.78 1.548 3.316 4.481 3.316 9.126 0 6.6-.08 11.897-.08 13.526 0 1.304.89 2.853 3.316 2.364 19.412-6.52 33.405-24.935 33.405-46.691C97.707 22 75.788 0 48.854 0z" fill="#fff"/></svg>


