<svg width="24" height="24" viewBox="0 0 24 24" fill="none" xmlns="http://www.w3.org/2000/svg">
<g id="sun">
<path id="Vector" d="M12.8 19.25C8.80005 19.25 5.55005 16 5.55005 12C5.55005 8 8.80005 4.75 12.8 4.75C16.8 4.75 20.05 8 20.05 12C20.05 16 16.8 19.25 12.8 19.25ZM12.8 6.25C9.63005 6.25 7.05005 8.83 7.05005 12C7.05005 15.17 9.63005 17.75 12.8 17.75C15.97 17.75 18.55 15.17 18.55 12C18.55 8.83 15.97 6.25 12.8 6.25Z" fill="white"/>
<path id="Vector_2" d="M12.8 22.96C12.25 22.96 11.8 22.55 11.8 22V21.92C11.8 21.37 12.25 20.92 12.8 20.92C13.35 20.92 13.8 21.37 13.8 21.92C13.8 22.47 13.35 22.96 12.8 22.96ZM19.94 20.14C19.68 20.14 19.43 20.04 19.23 19.85L19.1 19.72C18.71 19.33 18.71 18.7 19.1 18.31C19.49 17.92 20.12 17.92 20.51 18.31L20.64 18.44C21.03 18.83 21.03 19.46 20.64 19.85C20.45 20.04 20.2 20.14 19.94 20.14ZM5.66005 20.14C5.40005 20.14 5.15005 20.04 4.95005 19.85C4.56005 19.46 4.56005 18.83 4.95005 18.44L5.08005 18.31C5.47005 17.92 6.10005 17.92 6.49005 18.31C6.88005 18.7 6.88005 19.33 6.49005 19.72L6.36005 19.85C6.17005 20.04 5.91005 20.14 5.66005 20.14ZM22.8 13H22.72C22.17 13 21.72 12.55 21.72 12C21.72 11.45 22.17 11 22.72 11C23.27 11 23.76 11.45 23.76 12C23.76 12.55 23.35 13 22.8 13ZM2.88005 13H2.80005C2.25005 13 1.80005 12.55 1.80005 12C1.80005 11.45 2.25005 11 2.80005 11C3.35005 11 3.84005 11.45 3.84005 12C3.84005 12.55 3.43005 13 2.88005 13ZM19.81 5.99C19.55 5.99 19.3 5.89 19.1 5.7C18.71 5.31 18.71 4.68 19.1 4.29L19.23 4.16C19.62 3.77 20.25 3.77 20.64 4.16C21.03 4.55 21.03 5.18 20.64 5.57L20.51 5.7C20.32 5.89 20.07 5.99 19.81 5.99ZM5.79005 5.99C5.53005 5.99 5.28005 5.89 5.08005 5.7L4.95005 5.56C4.56005 5.17 4.56005 4.54 4.95005 4.15C5.34005 3.76 5.97005 3.76 6.36005 4.15L6.49005 4.28C6.88005 4.67 6.88005 5.3 6.49005 5.69C6.30005 5.89 6.04005 5.99 5.79005 5.99ZM12.8 3.04C12.25 3.04 11.8 2.63 11.8 2.08V2C11.8 1.45 12.25 1 12.8 1C13.35 1 13.8 1.45 13.8 2C13.8 2.55 13.35 3.04 12.8 3.04Z" fill="white"/>
</g>
</svg>
